<?xml version="1.0" encoding="UTF-8" standalone="no"?>
<!-- Created with Inkscape (http://www.inkscape.org/) -->

<svg
   xmlns:dc="http://purl.org/dc/elements/1.1/"
   xmlns:cc="http://creativecommons.org/ns#"
   xmlns:rdf="http://www.w3.org/1999/02/22-rdf-syntax-ns#"
   xmlns:svg="http://www.w3.org/2000/svg"
   xmlns="http://www.w3.org/2000/svg"
   xmlns:sodipodi="http://sodipodi.sourceforge.net/DTD/sodipodi-0.dtd"
   xmlns:inkscape="http://www.inkscape.org/namespaces/inkscape"
   version="1.1"
   id="svg4619"
   xml:space="preserve"
   width="350"
   height="100"
   viewBox="0 0 350 99.999998"
   sodipodi:docname="logo-white.svg"
   inkscape:version="0.92.4 5da689c313, 2019-01-14"><metadata
     id="metadata4625"><rdf:RDF><cc:Work
         rdf:about=""><dc:format>image/svg+xml</dc:format><dc:type
           rdf:resource="http://purl.org/dc/dcmitype/StillImage" /><dc:title></dc:title></cc:Work></rdf:RDF></metadata><defs
     id="defs4623"><clipPath
       clipPathUnits="userSpaceOnUse"
       id="clipPath4635"><path
         d="M 0,841.89 H 595.28 V 0 H 0 Z"
         id="path4633"
         inkscape:connector-curvature="0" /></clipPath></defs><sodipodi:namedview
     pagecolor="#ffffff"
     bordercolor="#666666"
     borderopacity="1"
     objecttolerance="10"
     gridtolerance="10"
     guidetolerance="10"
     inkscape:pageopacity="0"
     inkscape:pageshadow="2"
     inkscape:window-width="2560"
     inkscape:window-height="1384"
     id="namedview4621"
     showgrid="false"
     inkscape:zoom="1.064569"
     inkscape:cx="220.25605"
     inkscape:cy="448.53833"
     inkscape:window-x="0"
     inkscape:window-y="0"
     inkscape:window-maximized="1"
     inkscape:current-layer="g4627" /><g
     id="g4627"
     inkscape:groupmode="layer"
     inkscape:label="Rebase-1"
     transform="matrix(1.3333333,0,0,-1.3333333,0,99.99998)"><g
       id="g1421"
       transform="translate(-1.3947547,-0.58276316)"><g
         style="fill:#ffffff"
         transform="translate(30.188856,7.8711492)"
         id="g4673"><path
           inkscape:connector-curvature="0"
           id="path4675"
           style="fill:#ffffff;fill-opacity:1;fill-rule:nonzero;stroke:none"
           d="M 0,0 C -1.985,0 -3.601,1.615 -3.601,3.6 -3.601,5.586 -1.985,7.201 0,7.201 1.985,7.201 3.6,5.586 3.6,3.6 3.6,1.615 1.985,0 0,0 m -16.029,3.6 c 0,-1.985 -1.615,-3.6 -3.6,-3.6 -1.986,0 -3.601,1.615 -3.601,3.6 0,1.986 1.615,3.601 3.601,3.601 1.985,0 3.6,-1.615 3.6,-3.601 m -7.201,26.996 c 0,1.984 1.615,3.601 3.601,3.601 1.985,0 3.6,-1.617 3.6,-3.601 0,-1.987 -1.615,-3.602 -3.6,-3.602 -1.986,0 -3.601,1.615 -3.601,3.602 m 0,26.995 c 0,1.985 1.615,3.6 3.601,3.6 1.985,0 3.6,-1.615 3.6,-3.6 0,-1.986 -1.615,-3.601 -3.6,-3.601 -1.986,0 -3.601,1.615 -3.601,3.601 M 1.552,10.195 c -0.178,3.94 -1.031,6.444 -2.702,8.006 -1.611,1.506 -3.93,2.102 -7.299,1.873 -3.199,-0.215 -5.495,4.004 -6.324,5.801 1.187,1.221 1.92,2.887 1.92,4.721 0,3.189 -2.216,5.871 -5.189,6.588 v 13.82 c 2.973,0.717 5.189,3.397 5.189,6.587 0,3.736 -3.04,6.776 -6.776,6.776 -3.737,0 -6.777,-3.04 -6.777,-6.776 0,-3.19 2.216,-5.87 5.188,-6.587 v -13.82 c -2.972,-0.717 -5.188,-3.399 -5.188,-6.588 0,-3.19 2.216,-5.871 5.188,-6.588 V 10.188 C -24.19,9.471 -26.406,6.791 -26.406,3.6 c 0,-3.735 3.04,-6.776 6.777,-6.776 3.736,0 6.776,3.041 6.776,6.776 0,3.191 -2.216,5.871 -5.189,6.588 v 13.82 c 0.188,0.045 0.373,0.099 0.554,0.16 1.226,-2.551 4.292,-7.596 9.253,-7.262 2.43,0.162 3.993,-0.162 4.916,-1.025 1.006,-0.94 1.552,-2.774 1.693,-5.703 C -4.58,9.449 -6.777,6.777 -6.777,3.6 c 0,-3.735 3.04,-6.776 6.777,-6.776 3.737,0 6.776,3.041 6.776,6.776 0,3.205 -2.233,5.892 -5.224,6.595" /></g><g
         style="fill:#ffffff"
         transform="translate(94.146356,24.859449)"
         id="g4677"><path
           inkscape:connector-curvature="0"
           id="path4679"
           style="fill:#ffffff;fill-opacity:1;fill-rule:nonzero;stroke:none"
           d="M 0,0 H -17.596 V -11.354 H 2.057 v -8.867 H -28.381 V 27.6 H 1.064 v -8.87 h -18.66 V 8.799 H 0 Z" /></g><g
         style="fill:#ffffff"
         transform="translate(114.29286,12.300849)"
         id="g4681"><path
           inkscape:connector-curvature="0"
           id="path4683"
           style="fill:#ffffff;fill-opacity:1;fill-rule:nonzero;stroke:none"
           d="m 0,0 c 1.064,-0.143 2.341,-0.143 4.186,-0.143 4.896,0 9.223,1.916 9.223,6.954 0,4.753 -4.327,6.669 -9.72,6.669 H 0 Z m 0,21.213 h 3.547 c 5.747,0 8.728,2.344 8.728,5.891 0,3.619 -2.767,5.533 -7.663,5.533 C 2.199,32.637 0.851,32.494 0,32.354 Z M -10.714,39.52 c 2.839,0.496 8.514,0.994 13.977,0.994 6.599,0 10.644,-0.639 14.191,-2.698 3.335,-1.773 5.676,-5.039 5.676,-9.437 0,-4.184 -2.484,-8.088 -7.876,-10.145 v -0.142 c 5.463,-1.418 9.508,-5.606 9.508,-11.705 0,-4.401 -1.987,-7.807 -4.967,-10.219 C 16.319,-6.6 10.5,-8.16 0.993,-8.16 c -5.322,0 -9.294,0.355 -11.707,0.709 z" /></g><g
         style="fill:#ffffff"
         transform="translate(169.41836,25.000049)"
         id="g4685"><path
           inkscape:connector-curvature="0"
           id="path4687"
           style="fill:#ffffff;fill-opacity:1;fill-rule:nonzero;stroke:none"
           d="m 0,0 -2.981,10.146 c -0.85,2.838 -1.702,6.387 -2.412,9.225 H -5.534 C -6.245,16.533 -6.953,12.914 -7.733,10.146 L -10.572,0 Z m -12.133,-8.088 -3.406,-12.273 h -11.139 l 14.545,47.82 H 2.058 l 14.899,-47.82 H 5.251 L 1.562,-8.088 Z" /></g><g
         style="fill:#ffffff"
         transform="translate(193.04046,15.777349)"
         id="g4689"><path
           inkscape:connector-curvature="0"
           id="path4691"
           style="fill:#ffffff;fill-opacity:1;fill-rule:nonzero;stroke:none"
           d="m 0,0 c 2.838,-1.49 7.379,-2.98 11.99,-2.98 4.967,0 7.592,2.058 7.592,5.179 0,2.981 -2.269,4.682 -8.018,6.668 -7.947,2.84 -13.196,7.238 -13.196,14.192 0,8.16 6.882,14.332 18.092,14.332 5.464,0 9.366,-1.063 12.204,-2.412 l -2.411,-8.655 c -1.847,0.922 -5.322,2.27 -9.936,2.27 -4.681,0 -6.952,-2.199 -6.952,-4.614 0,-3.05 2.625,-4.398 8.87,-6.74 8.443,-3.121 12.344,-7.519 12.344,-14.26 0,-8.019 -6.101,-14.83 -19.227,-14.83 -5.463,0 -10.855,1.491 -13.551,2.981 z" /></g><g
         style="fill:#ffffff"
         transform="translate(259.44666,24.859449)"
         id="g4693"><path
           inkscape:connector-curvature="0"
           id="path4695"
           style="fill:#ffffff;fill-opacity:1;fill-rule:nonzero;stroke:none"
           d="M 0,0 H -17.595 V -11.354 H 2.06 v -8.867 H -28.38 V 27.6 H 1.065 v -8.87 h -18.66 V 8.799 H 0 Z" /></g><g
         style="fill:#ffffff"
         transform="translate(52.342656,23.443349)"
         id="g4697"><path
           inkscape:connector-curvature="0"
           id="path4699"
           style="fill:#ffffff;fill-opacity:1;fill-rule:nonzero;stroke:none"
           d="m 0,0 c -1.666,6.074 -4.212,13.105 -8.818,14.967 v 0.295 c 5.683,2.056 11.659,5.115 11.659,13.441 0,6.074 -2.154,10.777 -6.172,13.913 -4.702,3.721 -12.576,5.869 -22.373,5.869 -1.752,0 -3.453,-0.03 -5.099,-0.082 0.974,-2.324 1.517,-4.861 1.517,-7.505 0,-1.315 -0.136,-2.605 -0.39,-3.856 1.204,0.17 4.458,-0.262 6.654,-0.402 9.016,-0.577 10.964,-3.447 10.633,-8.097 -0.367,-5.174 -4.07,-7.797 -11.515,-7.797 0,0 -5.905,0.012 -5.918,0.012 0.574,-1.832 0.902,-3.76 0.902,-5.76 0,-1.732 -0.234,-3.416 -0.668,-5.027 h 4.214 c 6.172,-0.098 9.014,-4.975 10.874,-13.303 1.862,-8.131 3.528,-13.422 4.507,-15.381 H 5.291 C 4.016,-16.166 2.058,-7.545 0,0" /></g></g></g></svg>