<svg xmlns="http://www.w3.org/2000/svg" width="430" height="299" viewBox="0 0 430 299">
  <g id="Page-1" fill="none" fill-rule="evenodd">
    <g id="263353-P4T63U-926" transform="translate(-35 -144)">
      <g id="Group" transform="translate(35 144.3)">
        <path id="Fill-4" fill="#002D2B" d="M19.62 135.02h2.68v-10.68h-2.68v10.68zm5.2 0h2.68v-10.68h-2.68v10.68zm5.5 0H33v-10.68H30.3v10.68zm278.35 7.9h3.46v-15.34h-3.46v15.34zM261.6 125.6a3.62 3.62 0 0 1 7.24 0v10.44h-7.24V125.6zm13.99 12.47h2.45v-16.09h-2.45v16.1zm6.08 0h2.44v-16.09h-2.44v16.1zm5.7 0h2.44v-16.09h-2.44v16.1zm5.7 0h2.45v-16.09h-2.45v16.1zm21.85 4.85h3.46v-15.34h-3.46v15.34zm6.26 0h3.46v-15.34h-3.46v15.34zm16.6-4.85h2.45v-16.09h-2.45v16.1zm5.7 0h2.45v-16.09h-2.44v16.1zm5.7 0h2.45v-16.09h-2.44v16.1zm6.08 0h2.45v-16.09h-2.45v16.1zm9.2-12.47a3.62 3.62 0 0 1 7.24 0v10.44h-7.24V125.6zM153.8 140.9h11.18v-27.11h-11.18v27.1zm15.93 0h11.17v-27.11h-11.17v27.1zm11.1-54.07l.83-.94H183v3.31h-2.19v-2.37zm5.66 54.06h17.6V111h-17.6v29.9zm21.08-55h1.35l.84.94v2.38h-2.19v-3.32zm2.11 55h11.18v-27.1h-11.18v27.1zm15.93 0h11.17v-27.1H225.6v27.1zm192.22 2.03v-37.77h-7.8v-3.69h-3.08v3.69h-6.1V69.14h-11.77v-3.7h-3.08v3.7h-.27v58.43h-5.5v-3.45h1.57v-2.14h-1.57v-5.9h-4.56v-4.06h2.02a10.95 10.95 0 0 0-8.75-5.04v-7.06H368v1.76h-4.7v3.02h4.7v2.28a10.95 10.95 0 0 0-8.75 5.03h2.03v4.07h-4.43v-4.76h-.95v1.09h-2.72v2.3h2.72v1.37h-3.74v2.85h-3.87v-1.63h-1.83v1.63h-7.74v-1.63h-1.83v1.63h-3.92v-5.3h-1.9v-2.75h1.19v-1.63h-1.2v-2.24h-1.53v2.24h-1.2v1.63h1.2v2.75h-1.81a11.1 11.1 0 0 0-22.1 0h-1.81v-2.75h1.2v-1.63h-1.2v-2.24h-1.53v2.24h-1.2v1.63h1.2v2.75h-1.9v5.3h-3.93v-1.63h-1.83v1.63h-7.74v-1.63h-1.83v1.63h-3.87v-2.85h-3.74v-1.36h2.72v-2.31h-2.72v-1.09h-.95v4.76h-4.43v-4.06h2.03a10.95 10.95 0 0 0-8.75-5.04v-2.28h4.7v-3.02h-4.7v-1.76h-.94v7.06a10.94 10.94 0 0 0-8.75 5.03h2.02v4.07h-4.56v5.9h-1.57v2.14h1.57v18.8h-3.62V118.5h1.96v-1.89h-1.96v-3.95l6.68-6.98v-4.47h-8.2v-6.7h4.2v-2.24h-36.48V89.2h-5.2v-2.69l-.52-.94v-4.3s1.05 0 1.25-.52c.22-.52.11-4.4-.73-4.4-1.47 0-2.4 2.3-2.4 2.3l-4.2 4.62v5.94h-1.61v-2.8a6.98 6.98 0 0 0-6.4-6.95v-1.1a2.2 2.2 0 0 0 0-4.22v-1.21c.14-.05.28-.13.39-.24l3.4-3.4a1.15 1.15 0 1 0-1.62-1.64l-2.76 2.76-2.75-2.76a1.15 1.15 0 1 0-1.63 1.63l3.4 3.4c.12.12.25.2.39.25v1.2a2.2 2.2 0 0 0 0 4.23v1.1c-3.58.3-6.4 3.3-6.4 6.95v2.8h-1.61v-5.94l-4.19-4.61s-.94-2.3-2.41-2.3c-.84 0-.94 3.87-.73 4.4.2.52 1.25.52 1.25.52v4.3l-.52.93v2.7h-5.2v3.07H138.4v2.23h6.75v6.7H134.4v4.48l6.68 6.98v3.95h-1.96v1.89h1.96v24.4h-5.66l-2.2-68.46h3.24v-2.14h-3.32l-.08-2.5a9.99 9.99 0 0 0 .92-19v-3.18h1.98v-2.15h-3.5v-4.82h-1.1V0h-1.75v40.66h-1.1v4.82h-3.49v2.15H127v3.18a10 10 0 0 0 .92 19l-.08 2.5h-3.32v2.14h3.25l-2.21 68.47h-5.25v-29.26h-7.65V97.98h-3.08v3.69h-3.45V62.18h-5.78v-5.81h-3.57v5.81H91v39.49h-7.86V19.8c-21.46 8.5-21.46 33-21.46 33v48.87h-2.7V65.86h-3.9V61.5H49.8v-4.55H46.7v4.55h-6.57v4.35h-2.62v40.08a9.8 9.8 0 0 0-19.17 2.9h-3.1v-3.7h-3.07v37.78H0v13.58h430v-13.58h-12.18z"/>
        <path id="Fill-5" fill="#003E3C" d="M131.37 297.83h-1.76v-40.65h-1.1v-4.83h-3.49v-2.14H127v-3.19a9.99 9.99 0 0 1 .92-19l-.08-2.5h-3.32v-2.14h3.25l-2.16-66.88h9.76l-2.16 66.88h3.25v2.15h-3.32l-.08 2.49a9.99 9.99 0 0 1 .92 19v3.19h1.98v2.14h-3.5v4.83h-1.1v40.65zm-48.23-19.8c-21.46-8.5-21.46-33-21.46-33v-48.86h-2.7v35.8h-3.9v4.36H49.8v4.55H46.7v-4.55h-6.57v-4.36h-2.62V191.9a9.8 9.8 0 0 1-19.17-2.9h-3.1v3.7h-3.07v-36.2H120.3v27.69h-7.65v15.68h-3.08v-3.7h-3.45v39.5H91v-39.5h-7.86v81.87zM30.31 173.5H33v-10.68H30.3v10.68zm-5.5 0h2.7v-10.68h-2.7v10.68zm-5.2 0h2.7v-10.68h-2.7v10.68zm369.46 58.89h-3.08v-3.7h-.27v-58.43h-5.5v3.45h1.57v2.14h-1.57v5.9h-4.56v4.07h2.02a10.95 10.95 0 0 1-8.75 5.04v7.06H368v-1.77h-4.7v-3.02h4.7v-2.27a10.95 10.95 0 0 1-8.75-5.04h2.03v-4.06h-4.43v4.75h-.95v-1.08h-2.72v-2.31h2.72v-1.36h-3.74v-2.85h-3.87v1.63h-1.83v-1.63h-7.74v1.63h-1.83v-1.63h-3.92v5.3h-1.9v2.74h1.19v1.63h-1.2v2.24h-1.53v-2.24h-1.2v-1.63h1.2v-2.75h-1.81a11.1 11.1 0 0 1-22.1 0h-1.81v2.75h1.2v1.63h-1.2v2.24h-1.53v-2.24h-1.2v-1.63h1.2v-2.75h-1.9v-5.3h-3.93v1.63h-1.83v-1.63h-7.74v1.63h-1.83v-1.63h-3.87v2.86h-3.74v1.36h2.72v2.3h-2.72v1.1h-.95v-4.76h-4.43v4.06h2.03a10.95 10.95 0 0 1-8.75 5.04v2.27h4.7v3.02h-4.7v1.77h-.94v-7.06a10.94 10.94 0 0 1-8.75-5.04h2.02v-4.06h-4.56v-.55h-1.62v3.95l6.68 6.98v4.48h-8.2v6.7h4.2v2.24h-36.48v3.07h-5.2v2.69l-.52.94v4.3s1.05 0 1.25.52c.22.52.11 4.4-.73 4.4-1.47 0-2.4-2.3-2.4-2.3l-4.2-4.61v-5.94h-1.61v2.8a6.98 6.98 0 0 1-6.4 6.95v1.1a2.2 2.2 0 0 1 0 4.22v1.2c.14.06.28.13.39.25l3.4 3.4a1.15 1.15 0 1 1-1.62 1.63l-2.76-2.75-2.75 2.75a1.14 1.14 0 0 1-1.63 0 1.15 1.15 0 0 1 0-1.63l3.4-3.4c.12-.12.25-.2.39-.25v-1.2a2.2 2.2 0 0 1 0-4.22v-1.1a6.98 6.98 0 0 1-6.4-6.96v-2.8h-1.61v5.95l-4.19 4.6s-.94 2.31-2.41 2.31c-.84 0-.94-3.88-.73-4.4.2-.52 1.25-.52 1.25-.52v-4.3l-.52-.94v-2.7h-5.2v-3.06h-28.37v6.75h-3.57v-6.75h-4.55v-2.24h6.75v-6.7H136.4v-4.48l6.68-6.98v-3.95h-1.96v-1.88h1.96v-22.84h108.4v22.84h1.62v-3.48h-1.57v-2.14h1.57V156.5h55.57v13.76h3.46V156.5h2.8v13.75h3.46V156.5h2.8v13.75h3.46V156.5h93.18v36.18h-7.81v3.7h-3.08v-3.7h-6.1v36.02h-11.77v3.69zm-179.5-23.76v3.32h1.34l.84-.95v-2.37h-2.19zm-26.76 0V211l.84.95H185v-3.32h-2.19zm5.67-21.8h17.6v-29.89h-17.6v29.9zm39.12-2.79h11.17v-27.1H227.6v27.1zm-15.93 0h11.18v-27.1h-11.18v27.1zm-39.95 0h11.17v-27.1h-11.17v27.1zm-15.93 0h11.18v-27.1h-11.18v27.1zm208.68-22.24v10.44a3.62 3.62 0 0 0 7.24 0V161.8h-7.24zm-9.2 14.05h2.45v-16.09h-2.45v16.09zm-6.07 0h2.44v-16.09h-2.44v16.09zm-5.7 0h2.44v-16.09h-2.44v16.09zm-5.7 0h2.44v-16.09h-2.45v16.09zm-44.72 0h2.45v-16.09h-2.45v16.09zm-5.7 0h2.44v-16.09h-2.44v16.09zm-5.7 0h2.44v-16.09h-2.44v16.09zm-6.08 0h2.45v-16.09h-2.45v16.09zm-13.99-14.05v10.44a3.62 3.62 0 0 0 7.24 0V161.8h-7.24zM430 154.92v-12h-12.18v-1.58H430v13.58zm-108.8-12h3.45v-1.58h-3.46v1.58zm-6.27 0h3.46v-1.58h-3.46v1.58zm-6.26 0h3.46v-1.58h-3.46v1.58zm-59.19 0h3.62v-1.58h-3.62v1.58zm-108.4 0h-5.66l-.05-1.58h5.7v1.58zm-15.52 0h-5.25v-1.58h5.3l-.05 1.58zM0 142.92h12.18v-1.58H0v1.58z"/>
      </g>
    </g>
  </g>
</svg>
