<?xml version="1.0" encoding="UTF-8" standalone="no"?>
<!-- Created with Inkscape (http://www.inkscape.org/) -->

<svg
   xmlns:dc="http://purl.org/dc/elements/1.1/"
   xmlns:cc="http://creativecommons.org/ns#"
   xmlns:rdf="http://www.w3.org/1999/02/22-rdf-syntax-ns#"
   xmlns:svg="http://www.w3.org/2000/svg"
   xmlns="http://www.w3.org/2000/svg"
   xmlns:sodipodi="http://sodipodi.sourceforge.net/DTD/sodipodi-0.dtd"
   xmlns:inkscape="http://www.inkscape.org/namespaces/inkscape"
   width="210mm"
   height="297mm"
   viewBox="0 0 210 297"
   version="1.1"
   id="svg4916"
   inkscape:version="0.92.4 5da689c313, 2019-01-14"
   sodipodi:docname="logo-small.svg">
  <defs
     id="defs4910" />
  <sodipodi:namedview
     id="base"
     pagecolor="#ffffff"
     bordercolor="#666666"
     borderopacity="1.0"
     inkscape:pageopacity="0.0"
     inkscape:pageshadow="2"
     inkscape:zoom="0.35"
     inkscape:cx="-134.28571"
     inkscape:cy="560"
     inkscape:document-units="mm"
     inkscape:current-layer="layer1"
     showgrid="false"
     inkscape:window-width="2560"
     inkscape:window-height="1384"
     inkscape:window-x="0"
     inkscape:window-y="0"
     inkscape:window-maximized="1" />
  <metadata
     id="metadata4913">
    <rdf:RDF>
      <cc:Work
         rdf:about="">
        <dc:format>image/svg+xml</dc:format>
        <dc:type
           rdf:resource="http://purl.org/dc/dcmitype/StillImage" />
        <dc:title></dc:title>
      </cc:Work>
    </rdf:RDF>
  </metadata>
  <g
     inkscape:label="Layer 1"
     inkscape:groupmode="layer"
     id="layer1">
    <g
       id="g4701"
       transform="matrix(0.35277777,0,0,-0.35277777,95.564046,78.422407)">
      <path
         d="m 0,0 c -4.148,0 -7.523,3.376 -7.523,7.525 0,4.149 3.375,7.524 7.523,7.524 4.15,0 7.526,-3.375 7.526,-7.524 C 7.526,3.376 4.15,0 0,0 M -33.498,7.525 C -33.498,3.376 -36.873,0 -41.021,0 c -4.149,0 -7.524,3.376 -7.524,7.525 0,4.149 3.375,7.524 7.524,7.524 4.148,0 7.523,-3.375 7.523,-7.524 m -15.047,56.414 c 0,4.15 3.375,7.526 7.524,7.526 4.148,0 7.523,-3.376 7.523,-7.526 0,-4.148 -3.375,-7.523 -7.523,-7.523 -4.149,0 -7.524,3.375 -7.524,7.523 m 0,56.416 c 0,4.149 3.375,7.524 7.524,7.524 4.148,0 7.523,-3.375 7.523,-7.524 0,-4.149 -3.375,-7.524 -7.523,-7.524 -4.149,0 -7.524,3.375 -7.524,7.524 M 3.244,21.308 c -0.371,8.231 -2.153,13.465 -5.645,16.73 -3.367,3.146 -8.215,4.391 -15.256,3.915 -6.684,-0.452 -11.483,8.365 -13.216,12.123 2.481,2.552 4.014,6.032 4.014,9.863 0,6.667 -4.631,12.268 -10.844,13.766 v 28.884 c 6.213,1.498 10.844,7.1 10.844,13.766 0,7.809 -6.353,14.162 -14.162,14.162 -7.81,0 -14.163,-6.353 -14.163,-14.162 0,-6.666 4.631,-12.268 10.844,-13.766 V 77.705 c -6.213,-1.498 -10.844,-7.099 -10.844,-13.766 0,-6.665 4.631,-12.266 10.844,-13.765 V 21.291 c -6.213,-1.499 -10.844,-7.1 -10.844,-13.766 0,-7.809 6.353,-14.162 14.163,-14.162 7.809,0 14.162,6.353 14.162,14.162 0,6.666 -4.631,12.267 -10.844,13.766 v 28.883 c 0.392,0.095 0.778,0.206 1.157,0.332 2.561,-5.329 8.97,-15.873 19.337,-15.176 5.078,0.341 8.345,-0.337 10.274,-2.142 2.102,-1.964 3.243,-5.795 3.537,-11.916 -6.172,-1.527 -10.763,-7.109 -10.763,-13.747 0,-7.809 6.353,-14.162 14.161,-14.162 7.811,0 14.162,6.353 14.162,14.162 0,6.693 -4.668,12.312 -10.918,13.783"
         style="fill:#231f20;fill-opacity:1;fill-rule:nonzero;stroke:none"
         id="path4703"
         inkscape:connector-curvature="0" />
    </g>
    <g
       id="g4705"
       transform="matrix(0.35277777,0,0,-0.35277777,111.99266,66.889431)">
      <path
         d="m 0,0 c -3.501,12.767 -8.854,27.547 -18.533,31.46 v 0.619 C -6.59,36.402 5.972,42.83 5.972,60.333 c 0,12.767 -4.529,22.649 -12.973,29.238 -9.884,7.825 -26.433,12.337 -47.024,12.337 -3.682,0 -7.259,-0.062 -10.718,-0.17 2.048,-4.886 3.19,-10.217 3.19,-15.776 0,-2.766 -0.286,-5.476 -0.822,-8.103 2.532,0.356 9.372,-0.552 13.985,-0.847 18.952,-1.212 23.045,-7.246 22.351,-17.016 -0.772,-10.877 -8.555,-16.388 -24.203,-16.388 0,0 -12.411,0.023 -12.439,0.02 1.206,-3.845 1.896,-7.9 1.896,-12.102 0,-3.641 -0.492,-7.183 -1.403,-10.568 h 8.857 c 12.972,-0.205 18.943,-10.457 22.855,-27.959 3.914,-17.091 7.415,-28.21 9.473,-32.328 H 11.12 C 8.441,-33.976 4.323,-15.856 0,0"
         style="fill:#231f20;fill-opacity:1;fill-rule:nonzero;stroke:none"
         id="path4707"
         inkscape:connector-curvature="0" />
    </g>
  </g>
</svg>
